<svg width="232" height="194" viewBox="0 0 232 194" fill="none" xmlns="http://www.w3.org/2000/svg">
<path d="M174 101.047C174 96.6412 170.429 93.0697 166.023 93.0697L147.177 93.0697C142.772 93.0697 139.2 89.4982 139.2 85.0926L139.2 7.97715C139.2 3.57152 142.772 5.25151e-05 147.177 5.44425e-05L224.023 8.80627e-05C228.429 8.99902e-05 232 3.57155 232 7.97719L232 70.4312C232 143.68 203.956 184.527 147.868 192.972C143.238 193.669 139.2 189.971 139.2 185.289L139.2 165.149C139.2 161.572 141.614 158.495 144.929 157.152C164.31 149.302 174 131.295 174 103.131L174 101.047ZM34.8001 101.047C34.8001 96.6411 31.2286 93.0696 26.823 93.0696L7.9772 93.0696C3.57156 93.0696 9.07431e-05 89.4982 9.26388e-05 85.0925L0.000125821 7.97709C0.000127717 3.57146 3.5716 -8.38525e-06 7.97723 -6.45778e-06L84.823 2.71624e-05C89.2286 2.90899e-05 92.8001 3.57149 92.8001 7.97713L92.8001 70.4311C92.8001 143.68 64.7559 184.527 8.66773 192.972C4.03801 193.669 4.75099e-05 189.971 4.95246e-05 185.289L5.8191e-05 165.149C5.97302e-05 161.572 2.41354 158.495 5.7289 157.152C25.1097 149.302 34.8001 131.295 34.8001 103.131L34.8001 101.047Z" fill="white" fill-opacity="0.08"/>
</svg>
