<svg width="32" height="32" viewBox="0 0 32 32" fill="none" xmlns="http://www.w3.org/2000/svg">
<g clip-path="url(#clip0_799_319902)">
<path d="M16.0545 0C7.21353 0 0.0195312 7.192 0.0195312 16.034C0.0195312 24.876 7.21353 32.068 16.0545 32.068C24.8955 32.068 32.0895 24.876 32.0895 16.034C32.0895 7.192 24.8955 0 16.0545 0ZM16.0545 31C7.80253 31 1.08953 24.286 1.08953 16.034C1.08953 7.782 7.80253 1.068 16.0545 1.068C24.3065 1.068 31.0195 7.782 31.0195 16.034C31.0195 24.286 24.3065 31 16.0545 31Z" fill="#4FA7FF"/>
<path d="M19.5352 7.0352H16.8672C13.4692 7.0012 13.0352 9.1042 13.0352 11.3802V13.0352H11.5352C11.4674 13.0261 11.3984 13.0328 11.3336 13.0548C11.2688 13.0767 11.21 13.1133 11.1616 13.1616C11.1132 13.21 11.0767 13.2688 11.0547 13.3336C11.0328 13.3984 11.0261 13.4674 11.0352 13.5352V16.5352C11.0261 16.603 11.0328 16.672 11.0547 16.7368C11.0767 16.8015 11.1132 16.8604 11.1616 16.9088C11.21 16.9571 11.2688 16.9937 11.3336 17.0156C11.3984 17.0376 11.4674 17.0443 11.5352 17.0352H13.0352V24.5352C13.0268 24.6031 13.0341 24.672 13.0565 24.7367C13.0789 24.8014 13.1158 24.8601 13.1643 24.9083C13.2128 24.9566 13.2717 24.9931 13.3365 25.0151C13.4013 25.037 13.4703 25.0439 13.5382 25.0352H16.5932C16.8882 25.0692 17.1272 24.8302 17.0332 24.5352L17.0352 17.0352H19.5352C19.603 17.0443 19.6719 17.0376 19.7367 17.0156C19.8015 16.9937 19.8604 16.9571 19.9087 16.9088C19.9571 16.8604 19.9937 16.8015 20.0156 16.7368C20.0375 16.672 20.0442 16.603 20.0352 16.5352V13.5352C20.0442 13.4674 20.0375 13.3984 20.0156 13.3336C19.9937 13.2688 19.9571 13.21 19.9087 13.1616C19.8604 13.1133 19.8015 13.0767 19.7367 13.0548C19.6719 13.0328 19.603 13.0261 19.5352 13.0352H17.0322L17.0352 11.5352C17.1322 10.8962 17.1322 11.0002 17.7252 11.0352H19.5142C19.6532 11.0042 19.8012 11.0212 19.9052 10.9202C20.0092 10.8192 20.0692 10.6812 20.0342 10.5352V7.5352C20.0434 7.46745 20.0369 7.39849 20.0151 7.33369C19.9933 7.26889 19.9568 7.21 19.9085 7.16161C19.8602 7.11322 19.8014 7.07663 19.7366 7.0547C19.6719 7.03278 19.6029 7.0261 19.5352 7.0352V7.0352ZM19.0002 9.9792L17.7462 9.9312C16.1932 9.9312 16.0632 10.7742 16.0632 11.6372L16.0592 13.5332C16.059 13.6034 16.0728 13.673 16.0995 13.7379C16.1263 13.8028 16.1656 13.8617 16.2152 13.9114C16.2648 13.9611 16.3237 14.0006 16.3886 14.0275C16.4534 14.0544 16.523 14.0682 16.5932 14.0682H19.0352V16.0002H16.5952C16.4534 16.0002 16.3175 16.0564 16.2172 16.1565C16.1169 16.2567 16.0604 16.3925 16.0602 16.5342L16.0592 24.0352H14.0352V16.5352C14.0352 16.2402 13.8342 16.0012 13.5382 16.0012H12.0352V14.0692H13.5382C13.6083 14.0693 13.6778 14.0556 13.7427 14.0288C13.8076 14.002 13.8665 13.9628 13.9162 13.9132C14.0162 13.8122 14.0342 13.6762 14.0342 13.5342V11.3792C14.0342 9.1372 14.4872 8.0692 16.8662 8.0692H18.9992V9.9792H19.0002Z" fill="#4FA7FF"/>
</g>
<defs>
<clipPath id="clip0_799_319902">
<rect width="32" height="32" fill="white"/>
</clipPath>
</defs>
</svg>
