<svg width="32" height="32" viewBox="0 0 32 32" fill="none" xmlns="http://www.w3.org/2000/svg">
<g clip-path="url(#clip0_799_319910)">
<path d="M16.0545 0C7.21353 0 0.0195312 7.192 0.0195312 16.034C0.0195312 24.876 7.21353 32.068 16.0545 32.068C24.8955 32.068 32.0895 24.876 32.0895 16.034C32.0895 7.192 24.8955 0 16.0545 0ZM16.0545 31C7.80253 31 1.08953 24.286 1.08953 16.034C1.08953 7.782 7.80253 1.068 16.0545 1.068C24.3065 1.068 31.0195 7.782 31.0195 16.034C31.0195 24.286 24.3065 31 16.0545 31Z" fill="#4FA7FF"/>
<path d="M12.6247 13.7547H9.62473C9.52527 13.7547 9.42989 13.7942 9.35956 13.8646C9.28924 13.9349 9.24973 14.0303 9.24973 14.1297V23.1297C9.24973 23.2292 9.28924 23.3246 9.35956 23.3949C9.42989 23.4652 9.52527 23.5047 9.62473 23.5047H12.6247C12.7242 23.5047 12.8196 23.4652 12.8899 23.3949C12.9602 23.3246 12.9997 23.2292 12.9997 23.1297V14.1297C12.9997 14.0303 12.9602 13.9349 12.8899 13.8646C12.8196 13.7942 12.7242 13.7547 12.6247 13.7547ZM12.2497 22.7547H9.99973V14.5047H12.2497V22.7547ZM20.4997 13.7547C19.686 13.7547 18.8947 14.0232 18.2497 14.519V14.1297C18.2497 14.0303 18.2102 13.9349 18.1399 13.8646C18.0696 13.7942 17.9742 13.7547 17.8747 13.7547H14.8747C14.7753 13.7547 14.6799 13.7942 14.6096 13.8646C14.5392 13.9349 14.4997 14.0303 14.4997 14.1297V23.1297C14.4997 23.2292 14.5392 23.3246 14.6096 23.3949C14.6799 23.4652 14.7753 23.5047 14.8747 23.5047H17.8747C17.9742 23.5047 18.0696 23.4652 18.1399 23.3949C18.2102 23.3246 18.2497 23.2292 18.2497 23.1297V19.0047C18.2497 18.7064 18.3683 18.4202 18.5792 18.2092C18.7902 17.9983 19.0764 17.8797 19.3747 17.8797C19.6731 17.8797 19.9592 17.9983 20.1702 18.2092C20.3812 18.4202 20.4997 18.7064 20.4997 19.0047V23.1297C20.4997 23.2292 20.5392 23.3246 20.6096 23.3949C20.6799 23.4652 20.7753 23.5047 20.8747 23.5047H23.8747C23.9742 23.5047 24.0696 23.4652 24.1399 23.3949C24.2102 23.3246 24.2497 23.2292 24.2497 23.1297V17.5047C24.2485 16.5105 23.8531 15.5574 23.1501 14.8544C22.4471 14.1514 21.4939 13.7559 20.4997 13.7547ZM23.4997 22.7547H21.2497V19.0047C21.2497 18.5075 21.0522 18.0305 20.7006 17.6789C20.3489 17.3273 19.872 17.1297 19.3747 17.1297C18.8774 17.1297 18.4005 17.3273 18.0489 17.6789C17.6973 18.0305 17.4997 18.5075 17.4997 19.0047V22.7547H15.2497V14.5047H17.4997V15.407C17.4997 15.4847 17.5238 15.5604 17.5687 15.6238C17.6136 15.6872 17.677 15.7351 17.7503 15.7608C17.8236 15.7866 17.903 15.789 17.9777 15.7677C18.0524 15.7463 18.1186 15.7023 18.1672 15.6417C18.5524 15.1535 19.0803 14.7977 19.6773 14.6239C20.2743 14.45 20.9107 14.4668 21.4978 14.6719C22.0848 14.877 22.5932 15.2601 22.9521 15.7679C23.3109 16.2758 23.5024 16.8829 23.4997 17.5047V22.7547ZM11.4007 8.50624C11.3126 8.50003 11.2242 8.49953 11.136 8.50474C10.8553 8.48564 10.5737 8.52438 10.3086 8.61855C10.0435 8.71271 9.80057 8.86031 9.59484 9.05219C9.38911 9.24407 9.22497 9.47614 9.11258 9.73404C9.0002 9.99194 8.94196 10.2702 8.94148 10.5515C8.93915 10.8299 8.99403 11.1058 9.10273 11.3621C9.21142 11.6184 9.37161 11.8496 9.57336 12.0414C9.77511 12.2333 10.0141 12.3816 10.2756 12.4773C10.537 12.5729 10.8153 12.6138 11.0932 12.5975H11.1142C11.3829 12.6163 11.6526 12.582 11.908 12.4966C12.1633 12.4112 12.3994 12.2763 12.6027 12.0996C12.8059 11.923 12.9724 11.708 13.0926 11.467C13.2128 11.2261 13.2843 10.9638 13.3031 10.6951C13.3219 10.4265 13.2876 10.1568 13.2022 9.90138C13.1168 9.646 12.9819 9.40994 12.8052 9.20668C12.6286 9.00343 12.4136 8.83696 12.1726 8.71677C11.9317 8.59659 11.6694 8.52505 11.4007 8.50624ZM11.3745 11.8497C11.2879 11.8576 11.2007 11.8569 11.1142 11.8475H11.0932C10.9127 11.8611 10.7314 11.8368 10.5608 11.7764C10.3901 11.7159 10.234 11.6206 10.1023 11.4964C9.97063 11.3722 9.86628 11.2219 9.79595 11.0551C9.72561 10.8883 9.69082 10.7087 9.6938 10.5277C9.69679 10.3467 9.73748 10.1683 9.81328 10.0039C9.88908 9.83957 9.99832 9.6928 10.134 9.57301C10.2697 9.45323 10.4289 9.36306 10.6015 9.30826C10.774 9.25345 10.956 9.23523 11.136 9.25474C11.4801 9.22311 11.8227 9.32948 12.0884 9.55045C12.3541 9.77141 12.5211 10.0889 12.5527 10.433C12.5844 10.7771 12.478 11.1197 12.257 11.3854C12.0361 11.6511 11.7186 11.8181 11.3745 11.8497Z" fill="#4FA7FF"/>
</g>
<defs>
<clipPath id="clip0_799_319910">
<rect width="32" height="32" fill="white"/>
</clipPath>
</defs>
</svg>
