<svg width="60" height="60" viewBox="0 0 60 60" fill="none" xmlns="http://www.w3.org/2000/svg">
<g clip-path="url(#clip0_799_319964)">
<path fill-rule="evenodd" clip-rule="evenodd" d="M15.459 35.9665L16.4622 44.0881L27.1374 44.0905C27.8646 44.6233 28.7502 45.1153 30.1662 45.1537C31.6038 45.1129 32.5062 44.6209 33.1758 44.0905H43.9302L44.9334 35.9689L51.7182 30.9745C53.0742 23.9545 51.207 18.0145 47.727 13.2961C44.0094 8.32087 37.6974 4.52647 30.1662 4.44727C22.635 4.44727 16.3422 8.16247 12.4302 13.1377C9.28624 17.5417 7.14064 22.1833 8.30224 30.7369C9.22919 31.4113 10.0974 32.0525 10.9618 32.691C12.3891 33.7452 13.8058 34.7916 15.459 35.9665ZM29.4776 19.2163C29.6638 23.885 29.8528 28.6259 30.1695 32.8225C30.4598 28.9787 30.6076 24.6686 30.7551 20.3653C30.8966 16.237 31.0379 12.1149 31.3047 8.41686C32.1327 8.28006 33.1743 8.31846 34.2351 8.51526C35.1591 8.78886 35.8479 9.04566 36.5559 9.55686C35.994 12.4444 35.3751 15.6403 34.7449 18.8938C33.8086 23.7285 32.8476 28.6904 32.0127 32.9569C32.4425 31.4829 32.8966 29.9223 33.3652 28.3119C35.0842 22.4046 36.998 15.8279 38.6199 10.4041C39.5247 10.6201 40.4487 11.1505 41.1951 11.7217C41.8239 12.2329 42.2775 12.7225 42.9063 13.6873C41.528 16.5571 40.0466 19.8249 38.5539 23.1176C36.917 26.7283 35.2666 30.3689 33.7239 33.5473C35.2595 31.0216 36.9585 28.1014 38.6737 25.1535C40.6713 21.7202 42.6908 18.2491 44.4999 15.3193C45.1287 15.9097 45.5223 16.3225 46.2111 17.4241C46.8015 18.3097 47.0367 19.3321 47.2335 20.3353C46.0278 21.804 44.755 23.3649 43.4588 24.9544C40.7815 28.2377 38.0046 31.6431 35.5143 34.6105C37.1656 33.002 38.996 31.1921 40.8512 29.3577C43.2589 26.9771 45.7084 24.5551 47.8623 22.4785C48.1791 23.1673 48.4143 23.8153 48.5319 25.1137C48.6303 26.3113 48.4551 27.7081 48.1791 28.6129L40.8255 34.0801L40.0023 40.2145H31.8615C31.6239 40.6873 31.0935 41.2561 30.1695 41.3161C29.3022 41.262 29.0567 40.9701 28.5845 40.4088C28.5327 40.3473 28.4782 40.2825 28.4199 40.2145L20.2599 40.1545L19.4727 34.0393L12.0591 28.5337C11.8047 27.6697 11.5695 26.2345 11.7063 25.0345C11.8239 23.7961 12.0591 23.1649 12.4335 22.4185C14.1108 24.0523 15.9692 25.8939 17.8519 27.7596C20.2281 30.1144 22.643 32.5075 24.7815 34.5697C21.9534 31.1509 18.7178 27.1982 15.7104 23.5242C14.8078 22.4216 13.9258 21.3441 13.0815 20.3137C13.1991 19.3105 13.4751 18.2689 14.0247 17.3833C14.651 16.3248 15.1304 15.9028 15.7436 15.363C15.7672 15.3422 15.791 15.3213 15.8151 15.3001C17.5928 18.2072 19.5646 21.6199 21.5212 25.0062C23.2442 27.9883 24.9554 30.95 26.5119 33.5281C24.9377 30.2101 23.1993 26.3783 21.4801 22.5891C20.0619 19.4631 18.6568 16.3661 17.3679 13.6105C18.0159 12.6289 18.4287 12.2137 19.1367 11.6641C19.8063 11.1121 20.7303 10.5817 21.6735 10.3849C22.7005 13.9969 23.9144 18.0914 25.1229 22.1674C26.2302 25.9021 27.3329 29.6214 28.2831 32.9401C27.5735 29.4636 26.8042 25.5066 26.0311 21.5302C25.2169 17.3426 24.3986 13.1336 23.6415 9.44166C24.4479 8.98806 25.1367 8.73366 26.0799 8.43846C27.0231 8.28246 28.1631 8.22246 28.9695 8.41926C29.1802 11.7581 29.3279 15.4639 29.4776 19.2163Z" fill="white" fill-opacity="0.6"/>
<path fill-rule="evenodd" clip-rule="evenodd" d="M7.63281 52.7395H11.4488C11.3888 53.5843 11.804 53.7811 12.0008 53.9203C12.2168 53.9995 13.8104 54.0763 14.5952 53.9395C14.9096 53.8795 15.2048 53.7619 15.2048 52.7995C15.2048 52.3867 15.1064 51.9355 14.6336 51.8347C12.9632 51.6979 11.3312 51.8731 9.65841 51.7171C7.98801 51.3427 7.73121 50.9107 7.63281 49.5931C7.75041 47.7643 8.40081 47.2339 10.268 47.1739C12.2144 47.1139 14.1608 47.1139 16.1072 47.1739C18.092 47.1739 18.7016 47.9419 18.7016 49.6123H15.2048C15.2048 48.7867 15.0488 48.4723 14.6336 48.4315C13.7816 48.3715 12.9296 48.3715 12.0776 48.4315C11.7632 48.4315 11.3504 48.5899 11.3504 49.3363C11.3504 50.0443 11.528 50.2219 11.9984 50.2795C13.4336 50.3371 14.888 50.3587 16.304 50.4547C18.6632 50.5915 18.7424 51.6355 18.8216 52.7347C18.86 54.3091 18.2912 54.8587 17.8784 55.1155C17.4848 55.2931 15.5768 55.5091 15.2048 55.5091H11.4296C10.5848 55.5091 9.52161 55.4107 8.59761 55.1347C7.73121 54.9019 7.63281 53.7427 7.63281 52.7395ZM43.4792 55.5523H46.8224V47.2147H43.4792V55.5523ZM49.064 55.5523H52.3688V47.2147H49.0664V55.5523H49.064ZM41.5328 51.1867C41.4728 50.9251 41.3936 50.6707 41.2952 50.4211C40.724 49.4971 38.7584 49.4971 36.8528 49.4563C35.4176 49.4563 33.2744 49.4947 32.6456 50.1043C32.3888 50.3803 32.252 50.7739 32.1728 51.1867C32.0744 51.6787 32.0936 52.1899 32.0936 52.4251C32.0936 52.8571 32.132 54.5275 32.9384 54.9619C33.6848 55.4539 35.9456 55.5139 36.812 55.5139C37.736 55.5139 40.292 55.4155 40.6664 54.9835C41.3336 54.7483 41.492 53.9227 41.6288 53.2723H38.3456C38.3456 53.9203 37.8344 54.3139 36.812 54.2539C35.888 54.3139 35.3576 54.0979 35.3576 52.9363L41.6288 52.9555C41.6312 52.3867 41.6504 51.7771 41.5328 51.1867ZM38.348 51.7555H35.36C35.36 51.5203 35.3984 51.3235 35.4584 51.1843C35.6744 50.6539 36.224 50.6347 36.8144 50.5939C37.7192 50.5939 38.1128 50.8099 38.2688 51.1843C38.348 51.3427 38.3672 51.5395 38.348 51.7555ZM20.7896 55.5523H24.0536V52.0123C24.1328 51.5203 24.2504 51.1267 25.4504 51.1267C26.5904 51.1075 26.9048 51.4219 26.9048 52.0123V55.5523H30.1688V52.0123C30.1688 50.8531 30.1496 50.2219 29.4032 49.8883C28.7336 49.4563 27.7712 49.5139 26.8664 49.5139C25.9232 49.5139 24.86 49.6315 24.0536 50.0251V47.2123H20.7896V55.5523Z" fill="white" fill-opacity="0.6"/>
</g>
<defs>
<clipPath id="clip0_799_319964">
<rect width="60" height="60" fill="white"/>
</clipPath>
</defs>
</svg>
