<svg width="32" height="32" viewBox="0 0 32 32" fill="none" xmlns="http://www.w3.org/2000/svg">
<g clip-path="url(#clip0_799_319915)">
<path d="M16.0545 0C7.21353 0 0.0195312 7.192 0.0195312 16.034C0.0195312 24.876 7.21353 32.068 16.0545 32.068C24.8955 32.068 32.0895 24.876 32.0895 16.034C32.0895 7.192 24.8955 0 16.0545 0ZM16.0545 31C7.80253 31 1.08953 24.286 1.08953 16.034C1.08953 7.782 7.80253 1.068 16.0545 1.068C24.3065 1.068 31.0195 7.782 31.0195 16.034C31.0195 24.286 24.3065 31 16.0545 31Z" fill="#4FA7FF"/>
<path d="M22.4154 10.7559C22.4154 10.7559 21.2382 11.4512 20.5837 11.6484C20.2324 11.2444 19.7655 10.9581 19.2461 10.8282C18.7268 10.6982 18.1801 10.7309 17.6799 10.9218C17.1798 11.1127 16.7503 11.4526 16.4496 11.8955C16.1489 12.3385 15.9915 12.8631 15.9987 13.3984V13.9817C14.9736 14.0083 13.9578 13.7809 13.0418 13.3199C12.1258 12.8588 11.338 12.1784 10.7487 11.3392C10.7487 11.3392 8.41536 16.5892 13.6654 18.9225C12.464 19.738 11.0329 20.1469 9.58203 20.0892C14.832 23.0059 21.2487 20.0892 21.2487 13.3809C21.2487 13.2187 21.2324 13.0565 21.202 12.8967C21.797 12.3099 22.4154 10.7559 22.4154 10.7559Z" stroke="#4FA7FF" stroke-linecap="round" stroke-linejoin="round"/>
</g>
<defs>
<clipPath id="clip0_799_319915">
<rect width="32" height="32" fill="white"/>
</clipPath>
</defs>
</svg>
