<svg width="32" height="32" viewBox="0 0 32 32" fill="none" xmlns="http://www.w3.org/2000/svg">
<g clip-path="url(#clip0_799_319906)">
<path d="M16.0545 0C7.21353 0 0.0195312 7.192 0.0195312 16.034C0.0195312 24.876 7.21353 32.068 16.0545 32.068C24.8955 32.068 32.0895 24.876 32.0895 16.034C32.0895 7.192 24.8955 0 16.0545 0ZM16.0545 31C7.80253 31 1.08953 24.286 1.08953 16.034C1.08953 7.782 7.80253 1.068 16.0545 1.068C24.3065 1.068 31.0195 7.782 31.0195 16.034C31.0195 24.286 24.3065 31 16.0545 31Z" fill="#4FA7FF"/>
<path d="M16 9C13.6825 9 11.6345 9.273 10.3846 9.4816C9.35077 9.6538 8.51692 10.5393 8.32677 11.7125C8.16615 12.7107 8 14.1709 8 16C8 17.8291 8.16615 19.29 8.32677 20.2875C8.51692 21.4607 9.35077 22.349 10.3846 22.5191C11.64 22.7263 13.6948 23 16 23C18.3052 23 20.3606 22.727 21.6154 22.5184C22.6492 22.349 23.4831 21.4607 23.6732 20.2875C23.8338 19.2865 24 17.8235 24 16C24 14.1765 23.8363 12.7135 23.6732 11.7125C23.4831 10.5393 22.6492 9.6538 21.6154 9.4809C20.3655 9.2737 18.3169 9 16 9ZM16 10.4C18.2357 10.4 20.2332 10.6597 21.4425 10.8592C21.6938 10.9001 21.9274 11.0298 22.1103 11.23C22.2932 11.4303 22.4161 11.6909 22.4615 11.975C22.6105 12.899 22.7692 14.2689 22.7692 16C22.7692 17.7283 22.6105 19.101 22.4615 20.025C22.4169 20.3095 22.2942 20.5706 22.1112 20.771C21.9281 20.9714 21.6941 21.1009 21.4425 21.1408C20.2277 21.3403 18.2209 21.6 16 21.6C13.7785 21.6 11.7692 21.3403 10.5575 21.1408C10.3061 21.1003 10.0723 20.9707 9.88932 20.7704C9.70636 20.5701 9.58359 20.3093 9.53846 20.025C9.38954 19.101 9.23077 17.7339 9.23077 16C9.23077 14.264 9.38954 12.899 9.53846 11.975C9.58359 11.6907 9.70636 11.4299 9.88932 11.2296C10.0723 11.0293 10.3061 10.8997 10.5575 10.8592C11.7643 10.6597 13.7643 10.4 16 10.4ZM14.1538 11.9967V20.004L15.0769 19.4132L19.3846 16.6132L20.3077 16L19.3846 15.3875L15.0769 12.5875L14.1538 11.9967ZM15.3846 14.4033L17.8271 16L15.3846 17.5967V14.4033Z" fill="#4FA7FF"/>
</g>
<defs>
<clipPath id="clip0_799_319906">
<rect width="32" height="32" fill="white"/>
</clipPath>
</defs>
</svg>
